<svg width="24" height="24" viewBox="0 0 24 24" fill="none" xmlns="http://www.w3.org/2000/svg">
<path d="M6.99989 17.0248C6.89989 17.0248 6.81239 17.0081 6.73739 16.9748C6.66239 16.9415 6.59155 16.8831 6.52489 16.7998L2.34989 12.6248C2.24989 12.5415 2.20405 12.4456 2.21239 12.3373C2.22072 12.229 2.26655 12.1415 2.34989 12.0748C2.43322 11.9748 2.52072 11.929 2.61239 11.9373C2.70405 11.9456 2.79989 11.9915 2.89989 12.0748L6.99989 16.1748L7.69989 15.4748L8.24989 16.0248L7.49989 16.7998C7.41655 16.8831 7.33322 16.9415 7.24989 16.9748C7.16655 17.0081 7.08322 17.0248 6.99989 17.0248ZM11.9999 17.0248C11.8999 17.0248 11.8124 17.0081 11.7374 16.9748C11.6624 16.9415 11.5916 16.8831 11.5249 16.7998L7.34989 12.6248C7.26655 12.5415 7.22489 12.4498 7.22489 12.3498C7.22489 12.2498 7.26655 12.1581 7.34989 12.0748C7.43322 11.9915 7.52489 11.9498 7.62489 11.9498C7.72489 11.9498 7.81655 11.9915 7.89989 12.0748L11.9999 16.1748L21.1249 7.0748C21.2082 6.99147 21.2999 6.9498 21.3999 6.9498C21.4999 6.9498 21.5916 6.99147 21.6749 7.0748C21.7582 7.14147 21.7999 7.22897 21.7999 7.3373C21.7999 7.44564 21.7582 7.53314 21.6749 7.5998L12.4999 16.7998C12.4166 16.8831 12.3374 16.9415 12.2624 16.9748C12.1874 17.0081 12.0999 17.0248 11.9999 17.0248ZM11.2999 12.9748L10.7499 12.4248L16.1249 7.0498C16.2082 6.96647 16.2999 6.9248 16.3999 6.9248C16.4999 6.9248 16.5916 6.96647 16.6749 7.0498C16.7582 7.13314 16.7999 7.22897 16.7999 7.3373C16.7999 7.44564 16.7582 7.53314 16.6749 7.5998L11.2999 12.9748Z" fill="white"/>
</svg>
