<svg width="40" height="40" viewBox="0 0 40 40" fill="none" xmlns="http://www.w3.org/2000/svg">
<path d="M6.45825 30.7918C6.29159 30.7918 6.14575 30.7293 6.02075 30.6043C5.89575 30.4793 5.83325 30.3196 5.83325 30.1252C5.83325 29.9585 5.89575 29.8127 6.02075 29.6877C6.14575 29.5627 6.29159 29.5002 6.45825 29.5002H13.6666C13.8333 29.5002 13.9791 29.5627 14.1041 29.6877C14.2291 29.8127 14.2916 29.9724 14.2916 30.1668C14.2916 30.3335 14.2291 30.4793 14.1041 30.6043C13.9791 30.7293 13.8333 30.7918 13.6666 30.7918H6.45825ZM6.45825 10.5002C6.29159 10.5002 6.14575 10.4377 6.02075 10.3127C5.89575 10.1877 5.83325 10.0279 5.83325 9.8335C5.83325 9.66683 5.89575 9.521 6.02075 9.396C6.14575 9.271 6.29159 9.2085 6.45825 9.2085H20.4583C20.6249 9.2085 20.7708 9.271 20.8958 9.396C21.0208 9.521 21.0833 9.68072 21.0833 9.87516C21.0833 10.0418 21.0208 10.1877 20.8958 10.3127C20.7708 10.4377 20.6249 10.5002 20.4583 10.5002H6.45825ZM19.5416 34.1668C19.3471 34.1668 19.1944 34.1043 19.0833 33.9793C18.9721 33.8543 18.9166 33.7085 18.9166 33.5418V26.7502C18.9166 26.5835 18.9791 26.4377 19.1041 26.3127C19.2291 26.1877 19.3888 26.1252 19.5833 26.1252C19.7499 26.1252 19.8958 26.1877 20.0208 26.3127C20.1458 26.4377 20.2083 26.5835 20.2083 26.7502V29.5002H33.5416C33.7083 29.5002 33.8541 29.5627 33.9791 29.6877C34.1041 29.8127 34.1666 29.9724 34.1666 30.1668C34.1666 30.3335 34.1041 30.4793 33.9791 30.6043C33.8541 30.7293 33.7083 30.7918 33.5416 30.7918H20.2083V33.5418C20.2083 33.7085 20.1458 33.8543 20.0208 33.9793C19.8958 34.1043 19.736 34.1668 19.5416 34.1668ZM13.6666 24.0418C13.4721 24.0418 13.3124 23.9793 13.1874 23.8543C13.0624 23.7293 12.9999 23.5696 12.9999 23.3752V20.6252H6.45825C6.29159 20.6252 6.14575 20.5627 6.02075 20.4377C5.89575 20.3127 5.83325 20.1668 5.83325 20.0002C5.83325 19.8057 5.89575 19.6529 6.02075 19.5418C6.14575 19.4307 6.29159 19.3752 6.45825 19.3752H12.9999V16.5835C12.9999 16.4168 13.0624 16.271 13.1874 16.146C13.3124 16.021 13.4721 15.9585 13.6666 15.9585C13.861 15.9585 14.0138 16.021 14.1249 16.146C14.236 16.271 14.2916 16.4168 14.2916 16.5835V23.3752C14.2916 23.5696 14.2291 23.7293 14.1041 23.8543C13.9791 23.9793 13.8333 24.0418 13.6666 24.0418V24.0418ZM19.5416 20.6252C19.3749 20.6252 19.2291 20.5627 19.1041 20.4377C18.9791 20.3127 18.9166 20.1668 18.9166 20.0002C18.9166 19.8057 18.9791 19.6529 19.1041 19.5418C19.2291 19.4307 19.3749 19.3752 19.5416 19.3752H33.5416C33.7083 19.3752 33.8541 19.4377 33.9791 19.5627C34.1041 19.6877 34.1666 19.8335 34.1666 20.0002C34.1666 20.1946 34.1041 20.3474 33.9791 20.4585C33.8541 20.5696 33.7083 20.6252 33.5416 20.6252H19.5416ZM26.3333 13.8752C26.1388 13.8752 25.986 13.8127 25.8749 13.6877C25.7638 13.5627 25.7083 13.4029 25.7083 13.2085V6.4585C25.7083 6.29183 25.7708 6.146 25.8958 6.021C26.0208 5.896 26.1666 5.8335 26.3333 5.8335C26.5277 5.8335 26.6874 5.896 26.8124 6.021C26.9374 6.146 26.9999 6.29183 26.9999 6.4585V9.2085H33.5416C33.7083 9.2085 33.8541 9.271 33.9791 9.396C34.1041 9.521 34.1666 9.68072 34.1666 9.87516C34.1666 10.0418 34.1041 10.1877 33.9791 10.3127C33.8541 10.4377 33.7083 10.5002 33.5416 10.5002H26.9999V13.2085C26.9999 13.4029 26.9374 13.5627 26.8124 13.6877C26.6874 13.8127 26.5277 13.8752 26.3333 13.8752V13.8752Z" fill="black"/>
</svg>
