<svg width="24" height="24" viewBox="0 0 24 24" fill="none" xmlns="http://www.w3.org/2000/svg">
<path d="M18.75 13.5001C18.6333 13.5001 18.5417 13.4626 18.475 13.3876C18.4083 13.3126 18.375 13.2251 18.375 13.1251V10.3751H15.625C15.525 10.3751 15.4375 10.3376 15.3625 10.2626C15.2875 10.1876 15.25 10.1001 15.25 10.0001C15.25 9.88343 15.2875 9.79176 15.3625 9.7251C15.4375 9.65843 15.525 9.6251 15.625 9.6251H18.375V6.8751C18.375 6.7751 18.4125 6.6876 18.4875 6.6126C18.5625 6.5376 18.65 6.5001 18.75 6.5001C18.8667 6.5001 18.9583 6.5376 19.025 6.6126C19.0917 6.6876 19.125 6.7751 19.125 6.8751V9.6251H21.875C21.975 9.6251 22.0625 9.6626 22.1375 9.7376C22.2125 9.8126 22.25 9.9001 22.25 10.0001C22.25 10.1168 22.2125 10.2084 22.1375 10.2751C22.0625 10.3418 21.975 10.3751 21.875 10.3751H19.125V13.1251C19.125 13.2251 19.0875 13.3126 19.0125 13.3876C18.9375 13.4626 18.85 13.5001 18.75 13.5001ZM8.75 11.3751C7.91667 11.3751 7.22917 11.1001 6.6875 10.5501C6.14583 10.0001 5.875 9.30843 5.875 8.4751C5.875 7.64176 6.14583 6.95426 6.6875 6.4126C7.22917 5.87093 7.91667 5.6001 8.75 5.6001C9.58333 5.6001 10.2708 5.87093 10.8125 6.4126C11.3542 6.95426 11.625 7.64176 11.625 8.4751C11.625 9.30843 11.3542 10.0001 10.8125 10.5501C10.2708 11.1001 9.58333 11.3751 8.75 11.3751ZM2.45 18.6251C2.25 18.6251 2.08333 18.5584 1.95 18.4251C1.81667 18.2918 1.75 18.1251 1.75 17.9251V17.1751C1.75 16.7584 1.87083 16.3709 2.1125 16.0126C2.35417 15.6543 2.69167 15.3751 3.125 15.1751C4.175 14.7084 5.15 14.3709 6.05 14.1626C6.95 13.9543 7.85 13.8501 8.75 13.8501C9.65 13.8501 10.55 13.9543 11.45 14.1626C12.35 14.3709 13.325 14.7084 14.375 15.1751C14.8083 15.3918 15.1458 15.6751 15.3875 16.0251C15.6292 16.3751 15.75 16.7584 15.75 17.1751V17.9251C15.75 18.1251 15.6833 18.2918 15.55 18.4251C15.4167 18.5584 15.25 18.6251 15.05 18.6251H2.45ZM2.525 17.8501H14.975V17.1751C14.975 16.9251 14.8958 16.6793 14.7375 16.4376C14.5792 16.1959 14.3417 16.0001 14.025 15.8501C13.0917 15.4001 12.2083 15.0834 11.375 14.9001C10.5417 14.7168 9.66667 14.6251 8.75 14.6251C7.83333 14.6251 6.95833 14.7168 6.125 14.9001C5.29167 15.0834 4.40833 15.4001 3.475 15.8501C3.15833 16.0001 2.92083 16.1959 2.7625 16.4376C2.60417 16.6793 2.525 16.9251 2.525 17.1751V17.8501ZM8.75 10.6001C9.35 10.6001 9.85417 10.4001 10.2625 10.0001C10.6708 9.6001 10.875 9.1001 10.875 8.5001C10.875 7.9001 10.6708 7.39593 10.2625 6.9876C9.85417 6.57926 9.35 6.3751 8.75 6.3751C8.15 6.3751 7.64583 6.57926 7.2375 6.9876C6.82917 7.39593 6.625 7.9001 6.625 8.5001C6.625 9.1001 6.82917 9.6001 7.2375 10.0001C7.64583 10.4001 8.15 10.6001 8.75 10.6001Z" fill="#626262"/>
</svg>
