<svg width="24" height="24" viewBox="0 0 24 24" fill="none" xmlns="http://www.w3.org/2000/svg">
<path d="M9.4752 17.2498C9.3752 17.2498 9.28769 17.2331 9.2127 17.1998C9.1377 17.1665 9.05853 17.1081 8.9752 17.0248L4.6252 12.6998C4.50853 12.5831 4.4502 12.4456 4.4502 12.2873C4.4502 12.129 4.50853 11.9915 4.6252 11.8748C4.74186 11.7581 4.8752 11.6998 5.0252 11.6998C5.1752 11.6998 5.30853 11.7581 5.4252 11.8748L9.4752 15.9248L18.5502 6.8248C18.6669 6.7248 18.8044 6.6748 18.9627 6.6748C19.121 6.6748 19.2585 6.7248 19.3752 6.8248C19.4919 6.95814 19.5502 7.0998 19.5502 7.2498C19.5502 7.3998 19.4919 7.53314 19.3752 7.6498L9.9752 17.0248C9.90853 17.1081 9.83353 17.1665 9.7502 17.1998C9.66686 17.2331 9.5752 17.2498 9.4752 17.2498Z" fill="#E97F1D" fill-opacity="0.4"/>
</svg>
