<svg width="24" height="24" viewBox="0 0 24 24" fill="none" xmlns="http://www.w3.org/2000/svg">
<path id="check-svg" d="M9.45005 17.7999C9.31672 17.7999 9.19172 17.7749 9.07505 17.7249C8.95838 17.6749 8.85005 17.5999 8.75005 17.4999L4.22505 12.9749C4.02505 12.7749 3.92505 12.5332 3.92505 12.2499C3.92505 11.9666 4.02505 11.7249 4.22505 11.5249C4.42505 11.3249 4.66255 11.2249 4.93755 11.2249C5.21255 11.2249 5.45005 11.3249 5.65005 11.5249L9.45005 15.3249L18.35 6.4499C18.5334 6.2499 18.7625 6.1499 19.0375 6.1499C19.3125 6.1499 19.55 6.2499 19.75 6.4499C19.95 6.6499 20.05 6.89157 20.05 7.1749C20.05 7.45824 19.95 7.69157 19.75 7.8749L10.15 17.4999C10.05 17.5999 9.94172 17.6749 9.82505 17.7249C9.70838 17.7749 9.58338 17.7999 9.45005 17.7999Z" fill="#F7A7BB" fill-opacity="0.4"/>
</svg>
