<svg width="48" height="48" viewBox="0 0 48 48" fill="none" xmlns="http://www.w3.org/2000/svg">
<path d="M26.8 17.55C26.6 17.55 26.425 17.475 26.275 17.325C26.125 17.175 26.05 16.9833 26.05 16.75C26.05 16.55 26.125 16.375 26.275 16.225C26.425 16.075 26.6 16 26.8 16H41.25C41.4834 16 41.675 16.075 41.825 16.225C41.975 16.375 42.05 16.5667 42.05 16.8C42.05 17 41.975 17.175 41.825 17.325C41.675 17.475 41.4834 17.55 41.25 17.55H26.8ZM26.8 32C26.6 32 26.425 31.925 26.275 31.775C26.125 31.625 26.05 31.4333 26.05 31.2C26.05 31 26.125 30.825 26.275 30.675C26.425 30.525 26.6 30.45 26.8 30.45H41.25C41.4834 30.45 41.675 30.525 41.825 30.675C41.975 30.825 42.05 31.0167 42.05 31.25C42.05 31.45 41.975 31.625 41.825 31.775C41.675 31.925 41.4834 32 41.25 32H26.8ZM10.7 20.05L6.50004 15.85C6.36671 15.7167 6.30838 15.5417 6.32504 15.325C6.34171 15.1083 6.41671 14.9333 6.55004 14.8C6.68338 14.6667 6.85838 14.6 7.07504 14.6C7.29171 14.6 7.46671 14.6667 7.60004 14.8L11.65 18.85L19.8 10.7C19.9667 10.5667 20.1584 10.5 20.375 10.5C20.5917 10.5 20.7834 10.5667 20.95 10.7C21.0834 10.8667 21.15 11.0583 21.15 11.275C21.15 11.4917 21.0667 11.6667 20.9 11.8L12.65 20.05C12.3834 20.3167 12.0584 20.45 11.675 20.45C11.2917 20.45 10.9667 20.3167 10.7 20.05ZM10.7 34.5L6.50004 30.35C6.36671 30.1833 6.30838 30 6.32504 29.8C6.34171 29.6 6.41671 29.4167 6.55004 29.25C6.68338 29.1167 6.85838 29.05 7.07504 29.05C7.29171 29.05 7.46671 29.1167 7.60004 29.25L11.65 33.3L19.8 25.15C19.9667 25.0167 20.1584 24.95 20.375 24.95C20.5917 24.95 20.7834 25.0167 20.95 25.15C21.0834 25.3167 21.15 25.5083 21.15 25.725C21.15 25.9417 21.0667 26.1167 20.9 26.25L12.65 34.5C12.3834 34.8 12.0584 34.95 11.675 34.95C11.2917 34.95 10.9667 34.8 10.7 34.5Z" fill="#626262" fill-opacity="0.3"/>
</svg>
