<svg width="48" height="48" viewBox="0 0 48 48" fill="none" xmlns="http://www.w3.org/2000/svg">
<path d="M24 22.7502C22.3333 22.7502 20.9583 22.2085 19.875 21.1252C18.7917 20.0419 18.25 18.6669 18.25 17.0002C18.25 15.3002 18.7917 13.9085 19.875 12.8252C20.9583 11.7419 22.3333 11.2002 24 11.2002C25.6667 11.2002 27.0417 11.7419 28.125 12.8252C29.2083 13.9085 29.75 15.3002 29.75 17.0002C29.75 18.6669 29.2083 20.0419 28.125 21.1252C27.0417 22.2085 25.6667 22.7502 24 22.7502ZM11.6 37.2502C11.1667 37.2502 10.7917 37.0919 10.475 36.7752C10.1583 36.4585 10 36.0669 10 35.6002V34.3502C10 33.4502 10.25 32.6585 10.75 31.9752C11.25 31.2919 11.9167 30.7502 12.75 30.3502C14.7167 29.4835 16.6333 28.8252 18.5 28.3752C20.3667 27.9252 22.2 27.7002 24 27.7002C25.8 27.7002 27.6333 27.9252 29.5 28.3752C31.3667 28.8252 33.2833 29.4835 35.25 30.3502C36.0833 30.7502 36.75 31.2919 37.25 31.9752C37.75 32.6585 38 33.4502 38 34.3502V35.6002C38 36.0669 37.8417 36.4585 37.525 36.7752C37.2083 37.0919 36.8333 37.2502 36.4 37.2502H11.6Z" fill="#626262"/>
</svg>
