<svg width="28" height="28" viewBox="0 0 28 28" fill="none" xmlns="http://www.w3.org/2000/svg">
<path d="M9.01242 18.9877C9.18742 19.1627 9.39159 19.2502 9.62492 19.2502C9.85825 19.2502 10.0624 19.1627 10.2374 18.9877L13.9999 15.2252L17.7916 19.0168C17.9471 19.1724 18.1464 19.2453 18.3895 19.2356C18.6326 19.2259 18.8319 19.1432 18.9874 18.9877C19.1624 18.8127 19.2499 18.6085 19.2499 18.3752C19.2499 18.1418 19.1624 17.9377 18.9874 17.7627L15.2249 14.0002L19.0166 10.2085C19.1721 10.0529 19.2451 9.85364 19.2353 9.61058C19.2256 9.36752 19.143 9.16822 18.9874 9.01266C18.8124 8.83766 18.6083 8.75016 18.3749 8.75016C18.1416 8.75016 17.9374 8.83766 17.7624 9.01266L13.9999 12.7752L10.2083 8.9835C10.0527 8.82794 9.85339 8.75502 9.61034 8.76475C9.36728 8.77447 9.16797 8.85711 9.01242 9.01266C8.83742 9.18766 8.74992 9.39183 8.74992 9.62516C8.74992 9.8585 8.83742 10.0627 9.01242 10.2377L12.7749 14.0002L8.98325 17.7918C8.8277 17.9474 8.75478 18.1467 8.7645 18.3897C8.77422 18.6328 8.85686 18.8321 9.01242 18.9877ZM13.9999 25.6668C12.3471 25.6668 10.811 25.3703 9.39159 24.7772C7.97214 24.1842 6.73742 23.3627 5.68742 22.3127C4.63742 21.2627 3.81589 20.0279 3.22284 18.6085C2.62978 17.1891 2.33325 15.6529 2.33325 14.0002C2.33325 12.3668 2.62978 10.8404 3.22284 9.421C3.81589 8.00155 4.63742 6.76683 5.68742 5.71683C6.73742 4.66683 7.97214 3.84044 9.39159 3.23766C10.811 2.63489 12.3471 2.3335 13.9999 2.3335C15.6333 2.3335 17.1596 2.63489 18.5791 3.23766C19.9985 3.84044 21.2333 4.66683 22.2833 5.71683C23.3333 6.76683 24.1596 8.00155 24.7624 9.421C25.3652 10.8404 25.6666 12.3668 25.6666 14.0002C25.6666 15.6529 25.3652 17.1891 24.7624 18.6085C24.1596 20.0279 23.3333 21.2627 22.2833 22.3127C21.2333 23.3627 19.9985 24.1842 18.5791 24.7772C17.1596 25.3703 15.6333 25.6668 13.9999 25.6668Z" fill="#A5A5A5"/>
</svg>
