<svg width="48" height="48" viewBox="0 0 48 48" fill="none" xmlns="http://www.w3.org/2000/svg">
<path d="M26.8 17.55C26.6 17.55 26.425 17.475 26.275 17.325C26.125 17.175 26.05 16.9833 26.05 16.75C26.05 16.55 26.125 16.375 26.275 16.225C26.425 16.075 26.6 16 26.8 16H41.25C41.4833 16 41.675 16.075 41.825 16.225C41.975 16.375 42.05 16.5667 42.05 16.8C42.05 17 41.975 17.175 41.825 17.325C41.675 17.475 41.4833 17.55 41.25 17.55H26.8ZM26.8 32C26.6 32 26.425 31.925 26.275 31.775C26.125 31.625 26.05 31.4333 26.05 31.2C26.05 31 26.125 30.825 26.275 30.675C26.425 30.525 26.6 30.45 26.8 30.45H41.25C41.4833 30.45 41.675 30.525 41.825 30.675C41.975 30.825 42.05 31.0167 42.05 31.25C42.05 31.45 41.975 31.625 41.825 31.775C41.675 31.925 41.4833 32 41.25 32H26.8ZM10.7 20.05L6.49998 15.85C6.36665 15.7167 6.30832 15.5417 6.32498 15.325C6.34165 15.1083 6.41665 14.9333 6.54998 14.8C6.68332 14.6667 6.85832 14.6 7.07498 14.6C7.29165 14.6 7.46665 14.6667 7.59998 14.8L11.65 18.85L19.8 10.7C19.9666 10.5667 20.1583 10.5 20.375 10.5C20.5916 10.5 20.7833 10.5667 20.95 10.7C21.0833 10.8667 21.15 11.0583 21.15 11.275C21.15 11.4917 21.0666 11.6667 20.9 11.8L12.65 20.05C12.3833 20.3167 12.0583 20.45 11.675 20.45C11.2916 20.45 10.9666 20.3167 10.7 20.05ZM10.7 34.5L6.49998 30.35C6.36665 30.1833 6.30832 30 6.32498 29.8C6.34165 29.6 6.41665 29.4167 6.54998 29.25C6.68332 29.1167 6.85832 29.05 7.07498 29.05C7.29165 29.05 7.46665 29.1167 7.59998 29.25L11.65 33.3L19.8 25.15C19.9666 25.0167 20.1583 24.95 20.375 24.95C20.5916 24.95 20.7833 25.0167 20.95 25.15C21.0833 25.3167 21.15 25.5083 21.15 25.725C21.15 25.9417 21.0666 26.1167 20.9 26.25L12.65 34.5C12.3833 34.8 12.0583 34.95 11.675 34.95C11.2916 34.95 10.9666 34.8 10.7 34.5Z" fill="#626262"/>
</svg>
