<svg width="48" height="48" viewBox="0 0 48 48" fill="none" xmlns="http://www.w3.org/2000/svg">
<path d="M24 22.7502C22.3333 22.7502 20.9583 22.2002 19.875 21.1002C18.7917 20.0002 18.25 18.6169 18.25 16.9502C18.25 15.2835 18.7917 13.9085 19.875 12.8252C20.9583 11.7419 22.3333 11.2002 24 11.2002C25.6667 11.2002 27.0417 11.7419 28.125 12.8252C29.2083 13.9085 29.75 15.2835 29.75 16.9502C29.75 18.6169 29.2083 20.0002 28.125 21.1002C27.0417 22.2002 25.6667 22.7502 24 22.7502ZM36.4 37.2502H11.6C11.1667 37.2502 10.7917 37.0919 10.475 36.7752C10.1583 36.4585 10 36.0669 10 35.6002V34.3502C10 33.4502 10.25 32.6585 10.75 31.9752C11.25 31.2919 11.9167 30.7502 12.75 30.3502C14.7167 29.4835 16.6333 28.8252 18.5 28.3752C20.3667 27.9252 22.2 27.7002 24 27.7002C25.8 27.7002 27.6333 27.9252 29.5 28.3752C31.3667 28.8252 33.2667 29.4835 35.2 30.3502C36.0667 30.7502 36.75 31.2919 37.25 31.9752C37.75 32.6585 38 33.4502 38 34.3502V35.6002C38 36.0669 37.8417 36.4585 37.525 36.7752C37.2083 37.0919 36.8333 37.2502 36.4 37.2502ZM11.55 35.7002H36.45V34.3502C36.45 33.8502 36.2833 33.3585 35.95 32.8752C35.6167 32.3919 35.15 32.0002 34.55 31.7002C32.75 30.8335 30.9917 30.2085 29.275 29.8252C27.5583 29.4419 25.8 29.2502 24 29.2502C22.2 29.2502 20.4333 29.4419 18.7 29.8252C16.9667 30.2085 15.2167 30.8335 13.45 31.7002C12.85 32.0002 12.3833 32.3919 12.05 32.8752C11.7167 33.3585 11.55 33.8502 11.55 34.3502V35.7002ZM24 21.2002C25.2 21.2002 26.2083 20.8002 27.025 20.0002C27.8417 19.2002 28.25 18.2002 28.25 17.0002C28.25 15.8002 27.8417 14.7919 27.025 13.9752C26.2083 13.1585 25.2 12.7502 24 12.7502C22.8 12.7502 21.7917 13.1585 20.975 13.9752C20.1583 14.7919 19.75 15.8002 19.75 17.0002C19.75 18.2002 20.1583 19.2002 20.975 20.0002C21.7917 20.8002 22.8 21.2002 24 21.2002Z" fill="#626262" fill-opacity="0.3"/>
</svg>
